<svg xmlns="http://www.w3.org/2000/svg" viewBox="0 0 512 512" role="img" aria-labelledby="title desc">
  <title id="title">Medical Science icon</title>
  <desc id="desc">A bright medical cross and laboratory flask on a LEGO-style block.</desc>
  <defs>
    <linearGradient id="block" x1="80" y1="40" x2="432" y2="472" gradientUnits="userSpaceOnUse">
      <stop offset="0" stop-color="#66bb6a"/>
      <stop offset="0.55" stop-color="#43a047"/>
      <stop offset="1" stop-color="#2e7d32"/>
    </linearGradient>
    <linearGradient id="liquid" x1="206" y1="260" x2="358" y2="392" gradientUnits="userSpaceOnUse">
      <stop offset="0" stop-color="#64b5f6"/>
      <stop offset="1" stop-color="#1e88e5"/>
    </linearGradient>
    <filter id="shadow" x="-20%" y="-20%" width="140%" height="140%">
      <feDropShadow dx="14" dy="16" stdDeviation="0" flood-color="#000000" flood-opacity="0.22"/>
    </filter>
  </defs>

  <rect width="512" height="512" rx="92" fill="#c4c9d0"/>
  <circle cx="96" cy="96" r="32" fill="#d9dde3"/>
  <circle cx="416" cy="96" r="32" fill="#d9dde3"/>
  <circle cx="96" cy="416" r="32" fill="#aeb4bd"/>
  <circle cx="416" cy="416" r="32" fill="#aeb4bd"/>

  <rect x="88" y="88" width="336" height="336" rx="58" fill="url(#block)" filter="url(#shadow)"/>

  <path
    d="M224 138h64v70h70v64h-70v70h-64v-70h-70v-64h70z"
    fill="#ffffff"
    stroke="#1f6f35"
    stroke-width="12"
    stroke-linejoin="round"
  />

  <path
    d="M324 154v102l58 94c21 34-3 78-43 78H173c-40 0-64-44-43-78l58-94V154"
    fill="#ffffff"
    stroke="#1a1a1a"
    stroke-width="18"
    stroke-linecap="round"
    stroke-linejoin="round"
  />
  <path d="M184 338h144l32 52c7 12-1 27-15 27H167c-14 0-22-15-15-27z" fill="url(#liquid)"/>
  <path d="M176 154h160" fill="none" stroke="#1a1a1a" stroke-width="18" stroke-linecap="round"/>
  <circle cx="224" cy="368" r="12" fill="#bbdefb"/>
  <circle cx="278" cy="388" r="9" fill="#bbdefb"/>
</svg>
